<?xml version="1.0" encoding="utf-8"?>
<!-- Generator: Adobe Illustrator 24.2.3, SVG Export Plug-In . SVG Version: 6.00 Build 0)  -->
<svg version="1.1" id="레이어_1" xmlns="http://www.w3.org/2000/svg" xmlns:xlink="http://www.w3.org/1999/xlink" x="0px"
	 y="0px" viewBox="0 0 24 24" style="enable-background:new 0 0 24 24;" xml:space="preserve">
<style type="text/css">
	.st0{fill:#111111;}
</style>
<path class="st0" d="M21.1,4c-1.3-1.3-3-2-4.8-1.9c-1.6,0-3.2,0.6-4.3,1.8C9.4,1.4,5.4,1.5,2.9,4c-2.8,2.7-2.5,7.3,0.9,10.8l6.8,6.6
	C11,21.8,11.5,22,12,22c0.5,0,1-0.2,1.4-0.5l0.2-0.2l0.6-0.6c0.6-0.6,1.4-1.4,2.5-2.4l2.4-2.4l1.1-1.1C23.6,11.3,24,6.7,21.1,4z
	 M18.8,13.4l-0.2,0.2l-0.8,0.8l-2.4,2.4c-1,1-1.8,1.8-2.4,2.4L12,20l-6.8-6.7c-2.6-2.7-2.9-6-0.9-7.9c1.8-1.8,4.6-1.8,6.4,0
	c0,0,0,0,0,0l0.1,0.1c0.1,0.1,0.2,0.2,0.3,0.3L12,6.7l0.9-0.9l0.3-0.3l0.1-0.1c1.8-1.8,4.6-1.8,6.4,0c0,0,0,0,0,0
	C21.7,7.3,21.4,10.7,18.8,13.4z"/>
</svg>
