<?xml version="1.0" encoding="utf-8"?>
<!-- Generator: Adobe Illustrator 24.2.3, SVG Export Plug-In . SVG Version: 6.00 Build 0)  -->
<svg version="1.1" id="레이어_1" xmlns="http://www.w3.org/2000/svg" xmlns:xlink="http://www.w3.org/1999/xlink" x="0px"
	 y="0px" viewBox="0 0 30 30" style="enable-background:new 0 0 30 30;" xml:space="preserve">
<style type="text/css">
	.st0{fill:#111111;}
</style>
<path class="st0" d="M20,15.6c-0.1,0.7-0.4,1.3-0.7,1.8C19,18,18.5,18.5,18,18.9c-0.7,0.5-1.5,0.8-2.4,0.9c-0.9,0-1.7-0.2-2.4-0.6
	c-0.8-0.4-1.4-1.1-1.8-1.9c-0.6-1.2-0.7-2.5-0.4-3.8H9.6l0.1,6.9c0,0.1,0.1,0.3,0.1,0.4c0.1,0.1,0.2,0.2,0.4,0.2h10.4
	c0.1,0,0.3-0.1,0.4-0.2c0.1-0.1,0.2-0.3,0.2-0.4v-6.9h-1.4C20,14.2,20.1,14.9,20,15.6z M15.4,18.1c0.8,0,1.5-0.3,2.1-0.9
	s0.9-1.3,0.9-2.1c0-0.8-0.3-1.6-0.9-2.2c-0.6-0.6-1.3-1-2.1-1s-1.6,0.3-2.2,0.9c-0.6,0.6-0.9,1.3-0.9,2.2s0.3,1.6,0.9,2.2
	c0.6,0.6,1.2,0.9,2.1,0.9H15.4z M20.6,8.6h-1.4c-0.1,0-0.3,0.1-0.4,0.2c-0.1,0.1-0.2,0.3-0.2,0.4v1.7c0.1,0.3,0.3,0.4,0.6,0.4h1.4
	c0.2,0,0.4-0.1,0.5-0.2c0.1-0.1,0.1-0.3,0.2-0.4V9.2c0-0.1-0.1-0.3-0.2-0.4C20.9,8.7,20.7,8.6,20.6,8.6z M15,0c-2.7,0-5.2,0.7-7.6,2
	C5.2,3.3,3.3,5.2,2,7.4C0.7,9.8,0,12.3,0,15s0.7,5.2,2,7.6c1.3,2.3,3.2,4.1,5.4,5.5c2.3,1.3,4.8,2,7.6,2s5.2-0.7,7.6-2
	c2.3-1.3,4.1-3.2,5.5-5.5c1.3-2.3,2-4.8,2-7.5s-0.7-5.2-2-7.6c-1.3-2.3-3.2-4.1-5.5-5.4C20.2,0.7,17.7,0,15,0z M22.8,21.1l-0.1,0.1
	v0.1c0,0.3-0.1,0.6-0.4,0.9c-0.2,0.2-0.5,0.4-0.9,0.5H9.4c-0.3,0-0.6-0.1-0.8-0.4c-0.2-0.3-0.4-0.6-0.4-0.9L8,21.1L8.1,8.8
	c0-0.3,0.1-0.6,0.4-0.9C8.7,7.6,9,7.5,9.3,7.4h12.1c0.3,0.1,0.6,0.2,0.9,0.5c0.2,0.2,0.4,0.5,0.5,0.8C22.7,8.7,22.8,21.1,22.8,21.1z
	"/>
</svg>
