<?xml version="1.0" encoding="utf-8"?>
<!-- Generator: Adobe Illustrator 24.2.3, SVG Export Plug-In . SVG Version: 6.00 Build 0)  -->
<svg version="1.1" id="레이어_1" xmlns="http://www.w3.org/2000/svg" xmlns:xlink="http://www.w3.org/1999/xlink" x="0px"
	 y="0px" viewBox="0 0 24 24" style="enable-background:new 0 0 24 24;" xml:space="preserve">
<style type="text/css">
	.st0{fill:#111111;}
</style>
<path class="st0" d="M13,4.1L13,4.1c0-0.3,0.1-0.6,0.3-0.8C13.5,3.1,13.7,3,14,3c0.3,0,0.5,0.1,0.8,0.3C15,3.5,15.1,3.7,15.1,4
	c0,0.3-0.1,0.5-0.3,0.8C14.6,4.9,14.4,5,14.1,5l-0.2,0.1L14,5.2l-0.1,0.3l-0.1,1c0,0,0.1,0.1,0.1,0.1l-0.1,0.6
	c0,0.1-0.1,0.1-0.1,0.2l-0.1,0.2c-0.1,0.3-0.1,0.6-0.2,0.8s-0.1,0.4-0.1,0.5V9c0,0.2-0.1,0.4-0.1,0.5c0,0.1-0.1,0.3-0.2,0.6
	c-0.1,0.2-0.1,0.4,0,0.8l0.1,0.1c0,0.1,0.1,0.3,0.1,0.4c0.1,0.2,0.1,0.3,0.1,0.4c0,0.8,0,1.5-0.2,2l0.1,0.4c0.5,0.2,0.6,0.5,0.4,0.8
	l0.3,0.1c0.5,0.2,0.8,0.5,1,0.6s0.4,0.4,0.6,0.6c0.2,0,0.3,0.1,0.4,0.2l0.2,0.1c0.8,0.6,1.7,1.2,2.5,2l0.2,0.2v0.1l-0.1,0.1L19,19
	H19c0.1,0.1,0.2,0.1,0.2,0.1h0.1c0,0,0.1,0,0.1-0.1l0.1-0.1c0.1-0.1,0.2-0.1,0.2-0.2h0.2c0,0,0,0,0,0.1L19.8,19l-0.3,0.4h0.4
	l0.4,0.1c0.1,0,0.2-0.1,0.3-0.1l0.3-0.2c0.1,0,0.2,0,0.4,0.1h0.1c0,0,0,0.1-0.1,0.2l-0.7,0.7c-0.2,0.2-0.4,0.3-0.5,0.3l-0.8,0.5
	c0,0-0.1,0-0.1,0L19,20.7l-0.1-0.2l-0.2-0.2L18.5,20l-0.1-0.2l-0.1-0.1L18,19.5c-0.1,0-0.2,0-0.2-0.1L17,18.8
	c-0.1,0-0.3-0.1-0.4-0.2c-0.6-0.5-1-0.8-1.2-1L15,17.5l-0.7-0.1c-0.2,0-0.6-0.2-1-0.4l-0.5-0.2c-0.3-0.2-0.5-0.2-0.7-0.2L12,16.4
	c-0.2,0-0.3-0.1-0.4-0.1l-0.1-0.1c-0.1,0-0.2,0-0.2,0.1L10,16.8l-1.5,0.7c-0.4,0.3-0.8,0.6-1.1,0.8l-0.7,0.3l-1,0.7
	c-0.1,0.1-0.2,0.1-0.2,0l-0.1,0.1c-0.1,0-0.2,0.1-0.2,0.1l-0.2,0.1v0.1H4.8l-0.1,0.2c-0.1,0.2-0.2,0.2-0.2,0.3s-0.1,0.1-0.2,0.1
	s0,0.1-0.1,0.1l-0.1,0.1l-0.2,0.1l-0.3,0l-0.4,0.1L3,20.6c-0.2,0-0.4,0-0.5-0.1c-0.1-0.1-0.2-0.3-0.3-0.5c-0.1-0.1,0-0.2,0.1-0.3
	l0.1-0.1c0,0,0.1-0.1,0.2-0.1H3l0.5-0.2l0.2-0.1c0-0.1,0-0.1,0.1-0.2s0.1-0.1,0.2-0.1v-0.1c0-0.1-0.1-0.2-0.1-0.2c0-0.1,0-0.1,0-0.2
	c0,0,0-0.1,0.1-0.1h0L4,18.8C4,19,4.1,19.1,4.2,19l0.1-0.1c0-0.1,0.1-0.1,0.2-0.1l0.1,0.1l0.1-0.1l-0.1-0.1c0,0,0-0.1,0.1-0.1
	l0.2-0.2c0.2-0.2,0.4-0.5,0.7-0.7c0.6-0.4,1.2-0.8,1.8-1c0.2-0.2,0.4-0.3,0.7-0.3c0.2-0.3,0.4-0.6,0.7-0.9c0.3-0.2,0.5-0.3,0.6-0.4
	c0.1-0.2,0.2-0.2,0.3-0.2h0.1l0.1-0.1c0.1,0,0.1-0.1,0.2-0.1v-0.3c0-0.2,0-0.4,0.1-0.5s0.1-0.2,0.3-0.2l0.2-0.2
	c-0.1-0.2-0.1-0.3-0.1-0.5h-0.1c-0.1-0.1-0.1-0.2-0.1-0.4c-0.1-0.2-0.2-0.4-0.2-0.5H9.9c0,0.1-0.1,0.2-0.3,0.2l-0.1,0.1
	c-0.2,0.3-0.3,0.5-0.4,0.6c-0.1,0.1-0.3,0.3-0.7,0.5c-0.2,0.2-0.3,0.4-0.4,0.7c0,0.1,0,0.2,0,0.4L8,14.7h0.1c0,0.1,0,0.1,0.1,0.1
	h0.1c0.1,0,0.1,0.1,0.1,0.1c0,0.1-0.1,0.1-0.2,0.1S7.9,15,7.9,14.9c-0.1-0.1-0.1-0.1-0.2-0.1L7.5,15c-0.1,0.1-0.2,0.2-0.2,0.2
	c-0.1,0-0.1,0-0.1-0.1L7.3,15c0-0.1,0-0.1,0-0.1L6.8,15c0,0-0.1,0-0.2,0s0-0.1,0-0.1L7,14.8c0,0,0-0.1-0.1-0.1
	c-0.2,0.1-0.3,0.1-0.5,0.1l-0.3-0.1l-0.1-0.1c0,0,0-0.1,0.1-0.1c0.2,0,0.4,0,0.6-0.1l0.4-0.2l0.5-0.5l0.1-0.1
	c0.2-0.3,0.3-0.6,0.5-0.9s0.4-0.5,0.6-0.6l0.1-0.2c0.1-0.2,0.2-0.3,0.2-0.4c0.1-0.1,0.2-0.3,0.3-0.5l0.2-0.2
	c0.2-0.2,0.3-0.4,0.5-0.4l0.2-0.2c0,0,0.1-0.1,0.1-0.2l0.1-0.1l-0.1-0.1C10.2,9.7,10,9.5,10,9.4c0-0.3,0.1-0.5,0.3-0.7
	c0.2-0.2,0.4-0.3,0.7-0.3c0.2,0,0.4,0.1,0.5,0.2l0.1,0.1c0,0,0.1,0,0.1,0.1l0.2,0.1v0.2C12,9.1,12,9.2,12,9.2
	c0.1-0.1,0.2-0.3,0.4-0.4l0.3-1c0-0.2,0-0.3,0.1-0.5l0.1-0.2V7.1l0.2-0.7h0.1l0.2-0.7c0-0.1,0-0.3,0-0.4l-0.2-0.6L13,4.1z"/>
</svg>
