<?xml version="1.0" encoding="utf-8"?>
<!-- Generator: Adobe Illustrator 24.2.3, SVG Export Plug-In . SVG Version: 6.00 Build 0)  -->
<svg version="1.1" id="레이어_1" xmlns="http://www.w3.org/2000/svg" xmlns:xlink="http://www.w3.org/1999/xlink" x="0px"
	 y="0px" viewBox="0 0 60 60" style="enable-background:new 0 0 60 60;" xml:space="preserve">
<style type="text/css">
	.st0{fill:#111111;}
</style>
<path class="st0" d="M59.6,19.6L16,38.1c-3.6,1.5-6.7,2.3-9.1,2.3c-2.8,0-4.8-1-6.1-2.9c-0.8-1.3-1-2.8-0.7-4.8s1.2-4,2.6-6.2
	c1.2-1.8,3.1-4.1,5.7-7c-0.9,1.5-1.6,3-1.9,4.6c-0.7,3-0.1,5.1,1.9,6.5c0.9,0.6,2.2,1,3.8,1c1.3,0,2.8-0.2,4.4-0.6L59.6,19.6z"/>
</svg>
