<?xml version="1.0" encoding="utf-8"?>
<!-- Generator: Adobe Illustrator 24.2.3, SVG Export Plug-In . SVG Version: 6.00 Build 0)  -->
<svg version="1.1" id="레이어_1" xmlns="http://www.w3.org/2000/svg" xmlns:xlink="http://www.w3.org/1999/xlink" x="0px"
	 y="0px" viewBox="0 0 30 30" style="enable-background:new 0 0 30 30;" xml:space="preserve">
<style type="text/css">
	.st0{fill:#111111;}
</style>
<path class="st0" d="M15,0c-2.7,0-5.2,0.7-7.6,2C5.2,3.3,3.3,5.2,2,7.4C0.7,9.8,0,12.3,0,15s0.7,5.2,2,7.6c1.3,2.3,3.2,4.1,5.4,5.5
	c2.3,1.3,4.8,2,7.6,2s5.2-0.7,7.6-2c2.3-1.3,4.1-3.2,5.5-5.5c1.3-2.3,2-4.8,2-7.5s-0.7-5.2-2-7.6c-1.3-2.3-3.2-4.1-5.5-5.4
	C20.2,0.7,17.7,0,15,0z M22.5,11.6v0.5c0,1.7-0.4,3.4-1.2,5c-0.8,1.6-2,2.9-3.5,3.9c-1.7,1.1-3.5,1.6-5.6,1.6c-2,0-4-0.5-5.7-1.6
	h0.9c1.7,0,3.3-0.5,4.6-1.6c-0.8,0-1.5-0.2-2.2-0.8s-1.1-1.2-1.3-2l0.7,0.2c0.5,0,0.8-0.1,1-0.2c-0.9-0.1-1.6-0.6-2.2-1.2
	c-0.6-0.7-0.9-1.5-0.8-2.4c0.5,0.3,1.1,0.5,1.7,0.5c-1.1-0.7-1.7-1.7-1.7-3.1c0-0.7,0.2-1.3,0.5-1.9c1,1.2,2.2,2.1,3.5,2.8
	c1.3,0.7,2.8,1,4.2,1.1c-0.1-0.2-0.2-0.5-0.2-0.9c0-1,0.4-1.9,1.1-2.6c0.7-0.7,1.6-1.1,2.6-1.1s1.9,0.4,2.8,1.1
	C22.2,8.9,23,8.6,24,8.1c-0.3,0.9-0.8,1.6-1.6,2h0.1c0.9-0.2,1.6-0.4,2-0.6C23.8,10.4,23.2,11.1,22.5,11.6z"/>
</svg>
