<?xml version="1.0" encoding="utf-8"?>
<!-- Generator: Adobe Illustrator 24.2.3, SVG Export Plug-In . SVG Version: 6.00 Build 0)  -->
<svg version="1.1" id="레이어_1" xmlns="http://www.w3.org/2000/svg" xmlns:xlink="http://www.w3.org/1999/xlink" x="0px"
	 y="0px" viewBox="0 0 30 30" style="enable-background:new 0 0 30 30;" xml:space="preserve">
<style type="text/css">
	.st0{fill:#111111;}
</style>
<path class="st0" d="M14.1,22c-0.1,0.1-0.1,0.2-0.2,0.3c-0.1,0.1-0.2,0.1-0.3,0.1c-0.1,0-0.2,0-0.2-0.1c0-0.1-0.1-0.2-0.1-0.3v-3.7
	h-0.9v4.1c0,0.2,0,0.5,0.2,0.7c0.1,0.2,0.2,0.2,0.4,0.2c0.2,0,0.4-0.1,0.5-0.2c0.2-0.1,0.3-0.3,0.5-0.5v0.6H15v-4.9h-0.9
	C14.1,18.3,14.1,22,14.1,22z M8.7,17.5v-1H12v1h-1.1v5.7H9.8v-5.7H8.7z M14.9,11.6c-0.1,0-0.2,0-0.3-0.1c-0.1-0.1-0.2-0.2-0.1-0.3
	v-3c0-0.1,0-0.1,0.1-0.2c0.1-0.1,0.2-0.1,0.4-0.1c0.2,0,0.3,0,0.4,0.1c0.1,0.1,0.2,0.2,0.1,0.3v2.9c0,0.1-0.1,0.2-0.1,0.3
	C15.2,11.5,15,11.6,14.9,11.6z M17.4,22c0-0.8,0-1.6,0.1-2.5c0-0.1,0-0.2-0.1-0.3c-0.1-0.1-0.2-0.2-0.3-0.2h-0.1l-0.3,0.2v3l0.3,0.2
	l0.2,0.1c0.1,0,0.2,0,0.2-0.1C17.4,22.3,17.4,22.2,17.4,22z M17.5,18.2c0.3,0,0.5,0.1,0.7,0.3c0.2,0.2,0.2,0.5,0.2,0.9v2.8
	c0,0.3-0.1,0.6-0.2,0.8c-0.1,0.2-0.3,0.3-0.5,0.2c-0.2,0-0.4-0.1-0.6-0.2c-0.2-0.1-0.3-0.2-0.3-0.3v0.4h-1v-6.7h1v2.2
	c0.1-0.1,0.3-0.2,0.4-0.4C17.2,18.3,17.4,18.2,17.5,18.2z M22.4,24.6c0.3-0.3,0.5-1.1,0.6-2.6c0.1-0.7,0.1-1.4,0.2-2.1
	c0-0.6-0.1-1.3-0.2-2c-0.1-1.5-0.4-2.4-0.7-2.7s-1.6-0.6-3.8-0.7l-3.3-0.1l-3.4,0.1c-2.3,0.1-3.6,0.4-3.8,0.7s-0.5,1.2-0.7,2.7
	c-0.1,0.7-0.1,1.3-0.1,2c0,0.7,0,1.4,0.1,2.1c0.1,1.5,0.4,2.3,0.7,2.7c0.3,0.3,1.6,0.6,3.8,0.8l3.4,0.1l3.3-0.1
	c2.3-0.2,3.6-0.4,3.9-0.7C22.4,24.7,22.4,24.6,22.4,24.6z M10.5,5H9.3l1.4,4.5v2.8h1.2v-3L13.3,5h-1.2l-0.7,2.9h-0.1L10.5,5z
	 M13.4,8.2V11c0,0.5,0.1,0.8,0.4,1.1s0.6,0.4,1.1,0.4s0.8-0.1,1.1-0.4c0.3-0.3,0.4-0.6,0.4-1.1V8.2c0-0.4-0.1-0.7-0.4-1
	c-0.3-0.3-0.6-0.4-1.1-0.4s-0.8,0.1-1.1,0.4C13.5,7.5,13.4,7.8,13.4,8.2z M17.3,7v4.5c0,0.2,0,0.5,0.1,0.6c0.1,0.2,0.3,0.2,0.5,0.2
	s0.4-0.1,0.6-0.1s0.4-0.2,0.6-0.4v0.6h1.1V7h-1.1v4c-0.1,0.1-0.2,0.2-0.3,0.3c-0.1,0.1-0.2,0.1-0.4,0.1c-0.1,0-0.2,0-0.2,0
	c0,0-0.1-0.1-0.1-0.2V6.9L17.3,7C17.3,6.9,17.3,7,17.3,7z M15,0c2.7,0,5.2,0.7,7.6,2c2.3,1.3,4.1,3.2,5.5,5.4c1.3,2.3,2,4.8,2,7.6
	s-0.7,5.2-2,7.6c-1.3,2.3-3.2,4.1-5.5,5.5c-2.3,1.3-4.8,2-7.5,2s-5.2-0.7-7.6-2c-2.3-1.3-4.1-3.2-5.4-5.5c-1.3-2.3-2-4.8-2-7.5
	s0.7-5.2,2-7.6C3.3,5.2,5.2,3.3,7.4,2C9.8,0.7,12.3,0,15,0z M20.7,20.1l-0.1-0.5c0-0.2,0-0.4-0.1-0.4c-0.1-0.1-0.2-0.2-0.3-0.2
	c-0.1,0-0.2,0.1-0.3,0.2c-0.1,0.1-0.1,0.2-0.1,0.4v0.5H20.7z M20.3,18.2c0.4,0,0.7,0.1,1,0.4s0.4,0.6,0.4,1v1.2h-1.8v1
	c0,0.2,0,0.4,0.1,0.5c0.1,0.1,0.2,0.1,0.4,0.1s0.3-0.1,0.4-0.1c0.1-0.1,0.1-0.3,0.1-0.6v-0.2h0.9v0.3c0,0.5-0.1,0.8-0.4,1.1
	c-0.2,0.3-0.6,0.4-1,0.4s-0.8-0.1-1-0.4c-0.2-0.3-0.3-0.6-0.3-1.1v-2.2c0-0.4,0.1-0.7,0.4-1C19.6,18.3,19.9,18.2,20.3,18.2z"/>
</svg>
